solid ori_plinth
   facet normal -0.000000e+000 0.000000e+000 1.000000e+000
      outer loop
         vertex 5.800000e-001 -5.200000e-001 3.400000e-001
         vertex 5.800000e-001 5.200000e-001 3.400000e-001
         vertex 2.900000e-001 -5.200000e-001 3.400000e-001
      endloop
   endfacet
   facet normal -0.000000e+000 0.000000e+000 1.000000e+000
      outer loop
         vertex 2.900000e-001 -5.200000e-001 3.400000e-001
         vertex 5.800000e-001 5.200000e-001 3.400000e-001
         vertex 2.900000e-001 5.200000e-001 3.400000e-001
      endloop
   endfacet
   facet normal -0.000000e+000 0.000000e+000 1.000000e+000
      outer loop
         vertex 8.700000e-001 -5.200000e-001 1.700000e-001
         vertex 8.700000e-001 5.200000e-001 1.700000e-001
         vertex 5.800000e-001 -5.200000e-001 1.700000e-001
      endloop
   endfacet
   facet normal -0.000000e+000 0.000000e+000 1.000000e+000
      outer loop
         vertex 5.800000e-001 -5.200000e-001 1.700000e-001
         vertex 8.700000e-001 5.200000e-001 1.700000e-001
         vertex 5.800000e-001 5.200000e-001 1.700000e-001
      endloop
   endfacet
   facet normal -0.000000e+000 0.000000e+000 1.000000e+000
      outer loop
         vertex -8.700000e-001 5.200000e-001 1.700000e-001
         vertex -8.700000e-001 -5.200000e-001 1.700000e-001
         vertex -5.800000e-001 5.200000e-001 1.700000e-001
      endloop
   endfacet
   facet normal -0.000000e+000 0.000000e+000 1.000000e+000
      outer loop
         vertex -5.800000e-001 5.200000e-001 1.700000e-001
         vertex -8.700000e-001 -5.200000e-001 1.700000e-001
         vertex -5.800000e-001 -5.200000e-001 1.700000e-001
      endloop
   endfacet
   facet normal -0.000000e+000 -1.000000e+000 0.000000e+000
      outer loop
         vertex 3.000000e+000 -5.200000e-001 -1.000000e-002
         vertex 3.000000e+000 -5.200000e-001 -6.368163e-017
         vertex 8.700000e-001 -5.200000e-001 -6.368163e-017
      endloop
   endfacet
   facet normal -0.000000e+000 -1.000000e+000 0.000000e+000
      outer loop
         vertex 2.900000e-001 -5.200000e-001 3.400000e-001
         vertex 2.900000e-001 -5.200000e-001 5.100000e-001
         vertex -2.900000e-001 -5.200000e-001 5.100000e-001
      endloop
   endfacet
   facet normal -0.000000e+000 -1.000000e+000 0.000000e+000
      outer loop
         vertex 8.700000e-001 -5.200000e-001 -6.368163e-017
         vertex 8.700000e-001 -5.200000e-001 1.700000e-001
         vertex 5.800000e-001 -5.200000e-001 1.700000e-001
      endloop
   endfacet
   facet normal -0.000000e+000 -1.000000e+000 0.000000e+000
      outer loop
         vertex -2.900000e-001 -5.200000e-001 3.400000e-001
         vertex -5.800000e-001 -5.200000e-001 3.400000e-001
         vertex -5.800000e-001 -5.200000e-001 1.700000e-001
      endloop
   endfacet
   facet normal -0.000000e+000 -1.000000e+000 0.000000e+000
      outer loop
         vertex -8.700000e-001 -5.200000e-001 1.700000e-001
         vertex -8.700000e-001 -5.200000e-001 -6.368163e-017
         vertex -5.800000e-001 -5.200000e-001 1.700000e-001
      endloop
   endfacet
   facet normal -0.000000e+000 -1.000000e+000 0.000000e+000
      outer loop
         vertex -5.800000e-001 -5.200000e-001 1.700000e-001
         vertex -8.700000e-001 -5.200000e-001 -6.368163e-017
         vertex 2.900000e-001 -5.200000e-001 3.400000e-001
      endloop
   endfacet
   facet normal -0.000000e+000 -1.000000e+000 0.000000e+000
      outer loop
         vertex -5.800000e-001 -5.200000e-001 1.700000e-001
         vertex 2.900000e-001 -5.200000e-001 3.400000e-001
         vertex -2.900000e-001 -5.200000e-001 3.400000e-001
      endloop
   endfacet
   facet normal -0.000000e+000 -1.000000e+000 0.000000e+000
      outer loop
         vertex -2.900000e-001 -5.200000e-001 3.400000e-001
         vertex 2.900000e-001 -5.200000e-001 3.400000e-001
         vertex -2.900000e-001 -5.200000e-001 5.100000e-001
      endloop
   endfacet
   facet normal -0.000000e+000 -1.000000e+000 0.000000e+000
      outer loop
         vertex -8.700000e-001 -5.200000e-001 -6.368163e-017
         vertex -3.000000e+000 -5.200000e-001 -6.368163e-017
         vertex -3.000000e+000 -5.200000e-001 -1.000000e-002
      endloop
   endfacet
   facet normal -0.000000e+000 -1.000000e+000 0.000000e+000
      outer loop
         vertex 5.800000e-001 -5.200000e-001 3.400000e-001
         vertex 2.900000e-001 -5.200000e-001 3.400000e-001
         vertex 5.800000e-001 -5.200000e-001 1.700000e-001
      endloop
   endfacet
   facet normal -0.000000e+000 -1.000000e+000 0.000000e+000
      outer loop
         vertex 5.800000e-001 -5.200000e-001 1.700000e-001
         vertex 2.900000e-001 -5.200000e-001 3.400000e-001
         vertex -8.700000e-001 -5.200000e-001 -6.368163e-017
      endloop
   endfacet
   facet normal -0.000000e+000 -1.000000e+000 0.000000e+000
      outer loop
         vertex 5.800000e-001 -5.200000e-001 1.700000e-001
         vertex -8.700000e-001 -5.200000e-001 -6.368163e-017
         vertex 8.700000e-001 -5.200000e-001 -6.368163e-017
      endloop
   endfacet
   facet normal -0.000000e+000 -1.000000e+000 0.000000e+000
      outer loop
         vertex 8.700000e-001 -5.200000e-001 -6.368163e-017
         vertex -8.700000e-001 -5.200000e-001 -6.368163e-017
         vertex -3.000000e+000 -5.200000e-001 -1.000000e-002
      endloop
   endfacet
   facet normal -0.000000e+000 -1.000000e+000 0.000000e+000
      outer loop
         vertex 8.700000e-001 -5.200000e-001 -6.368163e-017
         vertex -3.000000e+000 -5.200000e-001 -1.000000e-002
         vertex 3.000000e+000 -5.200000e-001 -1.000000e-002
      endloop
   endfacet
   facet normal 1.000000e+000 0.000000e+000 0.000000e+000
      outer loop
         vertex 8.700000e-001 5.200000e-001 1.700000e-001
         vertex 8.700000e-001 -5.200000e-001 1.700000e-001
         vertex 8.700000e-001 5.200000e-001 -6.368163e-017
      endloop
   endfacet
   facet normal 1.000000e+000 0.000000e+000 0.000000e+000
      outer loop
         vertex 8.700000e-001 5.200000e-001 -6.368163e-017
         vertex 8.700000e-001 -5.200000e-001 1.700000e-001
         vertex 8.700000e-001 -5.200000e-001 -6.368163e-017
      endloop
   endfacet
   facet normal 0.000000e+000 1.000000e+000 0.000000e+000
      outer loop
         vertex 8.700000e-001 5.200000e-001 1.700000e-001
         vertex 8.700000e-001 5.200000e-001 -6.368163e-017
         vertex 5.800000e-001 5.200000e-001 1.700000e-001
      endloop
   endfacet
   facet normal 0.000000e+000 1.000000e+000 0.000000e+000
      outer loop
         vertex 5.800000e-001 5.200000e-001 1.700000e-001
         vertex 8.700000e-001 5.200000e-001 -6.368163e-017
         vertex -2.900000e-001 5.200000e-001 3.400000e-001
      endloop
   endfacet
   facet normal 0.000000e+000 1.000000e+000 0.000000e+000
      outer loop
         vertex -8.700000e-001 5.200000e-001 6.368163e-017
         vertex -8.700000e-001 5.200000e-001 1.700000e-001
         vertex -5.800000e-001 5.200000e-001 1.700000e-001
      endloop
   endfacet
   facet normal 0.000000e+000 1.000000e+000 0.000000e+000
      outer loop
         vertex 5.800000e-001 5.200000e-001 3.400000e-001
         vertex 5.800000e-001 5.200000e-001 1.700000e-001
         vertex 2.900000e-001 5.200000e-001 3.400000e-001
      endloop
   endfacet
   facet normal 0.000000e+000 1.000000e+000 0.000000e+000
      outer loop
         vertex 2.900000e-001 5.200000e-001 3.400000e-001
         vertex 5.800000e-001 5.200000e-001 1.700000e-001
         vertex -2.900000e-001 5.200000e-001 3.400000e-001
      endloop
   endfacet
   facet normal 0.000000e+000 1.000000e+000 0.000000e+000
      outer loop
         vertex 2.900000e-001 5.200000e-001 3.400000e-001
         vertex -2.900000e-001 5.200000e-001 3.400000e-001
         vertex 2.900000e-001 5.200000e-001 5.100000e-001
      endloop
   endfacet
   facet normal 0.000000e+000 1.000000e+000 0.000000e+000
      outer loop
         vertex 2.900000e-001 5.200000e-001 5.100000e-001
         vertex -2.900000e-001 5.200000e-001 3.400000e-001
         vertex -2.900000e-001 5.200000e-001 5.100000e-001
      endloop
   endfacet
   facet normal 0.000000e+000 1.000000e+000 0.000000e+000
      outer loop
         vertex 3.000000e+000 5.200000e-001 6.368163e-017
         vertex 3.000000e+000 5.200000e-001 -1.000000e-002
         vertex 8.700000e-001 5.200000e-001 -6.368163e-017
      endloop
   endfacet
   facet normal 0.000000e+000 1.000000e+000 0.000000e+000
      outer loop
         vertex 8.700000e-001 5.200000e-001 -6.368163e-017
         vertex 3.000000e+000 5.200000e-001 -1.000000e-002
         vertex -3.000000e+000 5.200000e-001 -1.000000e-002
      endloop
   endfacet
   facet normal 0.000000e+000 1.000000e+000 0.000000e+000
      outer loop
         vertex -5.800000e-001 5.200000e-001 3.400000e-001
         vertex -2.900000e-001 5.200000e-001 3.400000e-001
         vertex -5.800000e-001 5.200000e-001 1.700000e-001
      endloop
   endfacet
   facet normal 0.000000e+000 1.000000e+000 0.000000e+000
      outer loop
         vertex -5.800000e-001 5.200000e-001 1.700000e-001
         vertex -2.900000e-001 5.200000e-001 3.400000e-001
         vertex 8.700000e-001 5.200000e-001 -6.368163e-017
      endloop
   endfacet
   facet normal 0.000000e+000 1.000000e+000 0.000000e+000
      outer loop
         vertex -5.800000e-001 5.200000e-001 1.700000e-001
         vertex 8.700000e-001 5.200000e-001 -6.368163e-017
         vertex -8.700000e-001 5.200000e-001 6.368163e-017
      endloop
   endfacet
   facet normal 0.000000e+000 1.000000e+000 0.000000e+000
      outer loop
         vertex -8.700000e-001 5.200000e-001 6.368163e-017
         vertex 8.700000e-001 5.200000e-001 -6.368163e-017
         vertex -3.000000e+000 5.200000e-001 -1.000000e-002
      endloop
   endfacet
   facet normal 0.000000e+000 1.000000e+000 0.000000e+000
      outer loop
         vertex -8.700000e-001 5.200000e-001 6.368163e-017
         vertex -3.000000e+000 5.200000e-001 -1.000000e-002
         vertex -3.000000e+000 5.200000e-001 6.368163e-017
      endloop
   endfacet
   facet normal -1.000000e+000 -2.135044e-016 0.000000e+000
      outer loop
         vertex -8.700000e-001 -5.200000e-001 1.700000e-001
         vertex -8.700000e-001 5.200000e-001 1.700000e-001
         vertex -8.700000e-001 -5.200000e-001 -6.368163e-017
      endloop
   endfacet
   facet normal -1.000000e+000 -2.135044e-016 0.000000e+000
      outer loop
         vertex -8.700000e-001 -5.200000e-001 -6.368163e-017
         vertex -8.700000e-001 5.200000e-001 1.700000e-001
         vertex -8.700000e-001 5.200000e-001 6.368163e-017
      endloop
   endfacet
   facet normal 1.000000e+000 1.067522e-016 0.000000e+000
      outer loop
         vertex 5.800000e-001 5.200000e-001 3.400000e-001
         vertex 5.800000e-001 -5.200000e-001 3.400000e-001
         vertex 5.800000e-001 5.200000e-001 1.700000e-001
      endloop
   endfacet
   facet normal 1.000000e+000 1.067522e-016 0.000000e+000
      outer loop
         vertex 5.800000e-001 5.200000e-001 1.700000e-001
         vertex 5.800000e-001 -5.200000e-001 3.400000e-001
         vertex 5.800000e-001 -5.200000e-001 1.700000e-001
      endloop
   endfacet
   facet normal -1.000000e+000 -2.135044e-016 0.000000e+000
      outer loop
         vertex -5.800000e-001 -5.200000e-001 3.400000e-001
         vertex -5.800000e-001 5.200000e-001 3.400000e-001
         vertex -5.800000e-001 -5.200000e-001 1.700000e-001
      endloop
   endfacet
   facet normal -1.000000e+000 -2.135044e-016 0.000000e+000
      outer loop
         vertex -5.800000e-001 -5.200000e-001 1.700000e-001
         vertex -5.800000e-001 5.200000e-001 3.400000e-001
         vertex -5.800000e-001 5.200000e-001 1.700000e-001
      endloop
   endfacet
   facet normal -0.000000e+000 0.000000e+000 1.000000e+000
      outer loop
         vertex -5.800000e-001 5.200000e-001 3.400000e-001
         vertex -5.800000e-001 -5.200000e-001 3.400000e-001
         vertex -2.900000e-001 5.200000e-001 3.400000e-001
      endloop
   endfacet
   facet normal -0.000000e+000 0.000000e+000 1.000000e+000
      outer loop
         vertex -2.900000e-001 5.200000e-001 3.400000e-001
         vertex -5.800000e-001 -5.200000e-001 3.400000e-001
         vertex -2.900000e-001 -5.200000e-001 3.400000e-001
      endloop
   endfacet
   facet normal 1.000000e+000 1.067522e-016 0.000000e+000
      outer loop
         vertex 2.900000e-001 5.200000e-001 5.100000e-001
         vertex 2.900000e-001 -5.200000e-001 5.100000e-001
         vertex 2.900000e-001 5.200000e-001 3.400000e-001
      endloop
   endfacet
   facet normal 1.000000e+000 1.067522e-016 0.000000e+000
      outer loop
         vertex 2.900000e-001 5.200000e-001 3.400000e-001
         vertex 2.900000e-001 -5.200000e-001 5.100000e-001
         vertex 2.900000e-001 -5.200000e-001 3.400000e-001
      endloop
   endfacet
   facet normal -1.000000e+000 -4.270089e-016 0.000000e+000
      outer loop
         vertex -2.900000e-001 -5.200000e-001 5.100000e-001
         vertex -2.900000e-001 5.200000e-001 5.100000e-001
         vertex -2.900000e-001 -5.200000e-001 3.400000e-001
      endloop
   endfacet
   facet normal -1.000000e+000 -4.270089e-016 0.000000e+000
      outer loop
         vertex -2.900000e-001 -5.200000e-001 3.400000e-001
         vertex -2.900000e-001 5.200000e-001 5.100000e-001
         vertex -2.900000e-001 5.200000e-001 3.400000e-001
      endloop
   endfacet
   facet normal -0.000000e+000 0.000000e+000 1.000000e+000
      outer loop
         vertex -2.900000e-001 5.200000e-001 5.100000e-001
         vertex -2.900000e-001 -5.200000e-001 5.100000e-001
         vertex 2.900000e-001 5.200000e-001 5.100000e-001
      endloop
   endfacet
   facet normal -0.000000e+000 0.000000e+000 1.000000e+000
      outer loop
         vertex 2.900000e-001 5.200000e-001 5.100000e-001
         vertex -2.900000e-001 -5.200000e-001 5.100000e-001
         vertex 2.900000e-001 -5.200000e-001 5.100000e-001
      endloop
   endfacet
   facet normal -0.000000e+000 -1.224647e-016 1.000000e+000
      outer loop
         vertex -8.700000e-001 5.200000e-001 6.368163e-017
         vertex -3.000000e+000 5.200000e-001 6.368163e-017
         vertex -8.700000e-001 -5.200000e-001 -6.368163e-017
      endloop
   endfacet
   facet normal -0.000000e+000 -1.224647e-016 1.000000e+000
      outer loop
         vertex -8.700000e-001 -5.200000e-001 -6.368163e-017
         vertex -3.000000e+000 5.200000e-001 6.368163e-017
         vertex -3.000000e+000 -5.200000e-001 -6.368163e-017
      endloop
   endfacet
   facet normal -0.000000e+000 -1.224647e-016 1.000000e+000
      outer loop
         vertex 3.000000e+000 -5.200000e-001 -6.368163e-017
         vertex 3.000000e+000 5.200000e-001 6.368163e-017
         vertex 8.700000e-001 -5.200000e-001 -6.368163e-017
      endloop
   endfacet
   facet normal -0.000000e+000 -1.224647e-016 1.000000e+000
      outer loop
         vertex 8.700000e-001 -5.200000e-001 -6.368163e-017
         vertex 3.000000e+000 5.200000e-001 6.368163e-017
         vertex 8.700000e-001 5.200000e-001 -6.368163e-017
      endloop
   endfacet
   facet normal 0.000000e+000 1.200962e-016 -1.000000e+000
      outer loop
         vertex 3.000000e+000 5.200000e-001 -1.000000e-002
         vertex 3.000000e+000 -5.200000e-001 -1.000000e-002
         vertex -3.000000e+000 5.200000e-001 -1.000000e-002
      endloop
   endfacet
   facet normal 0.000000e+000 1.200962e-016 -1.000000e+000
      outer loop
         vertex -3.000000e+000 5.200000e-001 -1.000000e-002
         vertex 3.000000e+000 -5.200000e-001 -1.000000e-002
         vertex -3.000000e+000 -5.200000e-001 -1.000000e-002
      endloop
   endfacet
   facet normal 1.000000e+000 0.000000e+000 0.000000e+000
      outer loop
         vertex 3.000000e+000 -5.200000e-001 -1.000000e-002
         vertex 3.000000e+000 5.200000e-001 -1.000000e-002
         vertex 3.000000e+000 -5.200000e-001 -6.368163e-017
      endloop
   endfacet
   facet normal 1.000000e+000 0.000000e+000 0.000000e+000
      outer loop
         vertex 3.000000e+000 -5.200000e-001 -6.368163e-017
         vertex 3.000000e+000 5.200000e-001 -1.000000e-002
         vertex 3.000000e+000 5.200000e-001 6.368163e-017
      endloop
   endfacet
   facet normal -1.000000e+000 0.000000e+000 0.000000e+000
      outer loop
         vertex -3.000000e+000 5.200000e-001 -1.000000e-002
         vertex -3.000000e+000 -5.200000e-001 -1.000000e-002
         vertex -3.000000e+000 5.200000e-001 6.368163e-017
      endloop
   endfacet
   facet normal -1.000000e+000 0.000000e+000 0.000000e+000
      outer loop
         vertex -3.000000e+000 5.200000e-001 6.368163e-017
         vertex -3.000000e+000 -5.200000e-001 -1.000000e-002
         vertex -3.000000e+000 -5.200000e-001 -6.368163e-017
      endloop
   endfacet
endsolid